<svg height="512pt" viewBox="-12 0 511 512" width="512pt" xmlns="http://www.w3.org/2000/svg"><g fill="#00e9cc"><path d="m400.78125 207.519531-55.609375-27.804687v52.238281c0 8.5625 6.96875 15.53125 15.53125 15.53125h80.15625c8.5625 0 15.53125-6.96875 15.53125-15.53125v-52.238281zm0 0"/><path d="m424.828125 55.109375v-15.03125h-16.53125v-8.515625h-15.03125v8.515625h-16.03125v39.078125h32.0625v9.015625h-32.5625v15.03125h16.53125v8.515625h15.03125v-8.515625h16.03125v-39.078125h-32.0625v-9.015625zm0 0"/><path d="m232.953125 48.09375h47.09375v47.09375h-47.09375zm0 0"/><path d="m232.953125 128.25h47.09375v47.09375h-47.09375zm0 0"/><path d="m232.953125 208.40625h47.09375v47.09375h-47.09375zm0 0"/><path d="m136.265625 160.3125h16.03125v15.03125h-16.03125zm0 0"/><path d="m168.328125 160.3125h16.03125v15.03125h-16.03125zm0 0"/><path d="m200.390625 160.3125h16.03125v15.03125h-16.03125zm0 0"/><path d="m265.015625 296.578125h111.21875v55.109375h-111.21875zm0 0"/><path d="m329.140625 432.84375h47.09375v47.09375h-47.09375zm0 0"/></g><path d="m400.78125 127.363281-96.960938 48.480469 96.960938 48.480469 72.640625-36.320313v43.949219h15.03125v-60.753906zm0 80.15625-63.351562-31.675781 63.351562-31.675781 63.351562 31.675781zm0 0"/><path d="m305.09375 199.890625h15.03125v48.09375h-15.03125zm0 0"/><path d="m79.65625 344.171875v-304.59375c0-9.269531-3.214844-17.796875-8.570312-24.546875h209.460937c13.535156 0 24.546875 11.007812 24.546875 24.546875v112.21875h15.03125v-112.21875c0-21.824219-17.753906-39.578125-39.578125-39.578125h-240.46875c-21.824219 0-39.578125 17.753906-39.578125 39.578125v71.640625h64.125v161.3125h-64.125v71.640625c0 21.824219 17.753906 39.578125 39.578125 39.578125h176.34375v-15.03125h-145.335937c5.355468-6.75 8.570312-15.277344 8.570312-24.546875zm-64.125-247.984375v-56.609375c0-13.539063 11.007812-24.546875 24.546875-24.546875 13.535156 0 24.546875 11.007812 24.546875 24.546875v56.609375zm0 247.984375v-56.609375h49.09375v56.609375c0 13.535156-11.011719 24.546875-24.546875 24.546875-13.539063 0-24.546875-11.011719-24.546875-24.546875zm0 0"/><path d="m104.203125 48.09375h112.21875v15.03125h-112.21875zm0 0"/><path d="m128.25 80.15625h88.171875v15.03125h-88.171875zm0 0"/><path d="m104.203125 128.25h112.21875v15.03125h-112.21875zm0 0"/><path d="m104.203125 208.40625h112.21875v15.03125h-112.21875zm0 0"/><path d="m128.25 240.46875h88.171875v15.03125h-88.171875zm0 0"/><path d="m104.203125 288.5625h112.21875v15.03125h-112.21875zm0 0"/><path d="m128.25 320.625h88.171875v15.03125h-88.171875zm0 0"/><path d="m232.953125 512h175.34375v-247.484375h-175.34375zm15.03125-232.453125h145.28125v217.421875h-145.28125zm0 0"/><path d="m329.140625 415.8125h47.09375v-47.09375h-47.09375zm15.03125-32.0625h17.03125v17.03125h-17.03125zm0 0"/><path d="m265.015625 479.9375h47.09375v-47.09375h-47.09375zm15.03125-32.0625h17.03125v17.03125h-17.03125zm0 0"/><path d="m265.015625 415.8125h47.09375v-47.09375h-47.09375zm15.03125-32.0625h17.03125v17.03125h-17.03125zm0 0"/></svg>