<?xml version="1.0" encoding="iso-8859-1"?>
<!-- Generator: Adobe Illustrator 19.0.0, SVG Export Plug-In . SVG Version: 6.00 Build 0)  -->
<svg version="1.1" id="Capa_1" xmlns="http://www.w3.org/2000/svg" xmlns:xlink="http://www.w3.org/1999/xlink" x="0px" y="0px"
	 viewBox="0 0 480 480" style="enable-background:new 0 0 480 480;" xml:space="preserve">
<path style="fill:#FFDAAA;" d="M144,160h192l0,0v80c0,44.183-35.817,80-80,80h-32c-44.183,0-80-35.817-80-80V160L144,160z"/>
<path style="fill:#78B9EB;" d="M456.88,410L354.4,376.8c-1.597-0.544-3.273-0.814-4.96-0.8H344l-72,64l-32-32l-32,32l-72-64h-5.44
	c-1.687-0.014-3.363,0.256-4.96,0.8L23.12,410C13.99,413.603,7.992,422.424,8,432.24V472h464v-39.76
	C472.008,422.424,466.011,413.603,456.88,410z"/>
<path style="fill:#FFBCAB;" d="M176,344h-16l16,12.8V344z"/>
<path style="fill:#FFDAAA;" d="M240,408l64-51.2v-50.304c-12.537,8.8-27.483,13.516-42.8,13.504h-42.4
	c-15.317,0.012-30.263-4.704-42.8-13.504V356.8L240,408z"/>
<path style="fill:#FFBCAB;" d="M320,344h-16v12.8L320,344z"/>
<g>
	<path style="fill:#96C8EF;" d="M320,344l-16,12.8L240,408l32,32l72-64L320,344z"/>
	<path style="fill:#96C8EF;" d="M160,344l-24,32l72,64l32-32l-64-51.2L160,344z"/>
</g>
<path style="fill:#787680;" d="M80,80l56,22.72V80l104-16l104,16v22.72L400,80L240,8L80,80z"/>
<path style="fill:#FF7956;" d="M384,120v48c0,4.418,3.582,8,8,8h16c4.418,0,8-3.582,8-8v-48c0-4.418-3.582-8-8-8h-16
	C387.582,112,384,115.582,384,120z"/>
<path style="fill:#57565C;" d="M136,80v88c0,0,64-24,104,16c0,0,40-40,104-16V80L240,64L136,80z"/>
<path style="fill:#353535;" d="M459.352,402.4l-102.336-33.168c-2.439-0.828-5-1.245-7.576-1.232H348l-21.6-28.8
	c-1.299-1.732-3.244-2.863-5.392-3.136c-0.337,0.002-0.674,0.029-1.008,0.08V336h-8v-25.552c20.171-15.64,31.983-39.724,32-65.248
	v-65.776c1.379,0.008,2.736-0.345,3.936-1.024c2.51-1.418,4.062-4.077,4.064-6.96v-63.336l40-16.224V104c-8.837,0-16,7.163-16,16v48
	c0,8.837,7.163,16,16,16h16c8.837,0,16-7.163,16-16v-48c0-8.837-7.163-16-16-16V80c0.003-3.145-1.838-6-4.704-7.296l-160-72
	c-2.086-0.938-4.474-0.938-6.56,0l-160,72c-4.031,1.81-5.831,6.545-4.021,10.575c0.844,1.881,2.382,3.362,4.293,4.137L128,108.104
	v63.336c0,4.418,3.582,8,8,8v65.76c0.017,25.524,11.829,49.608,32,65.248V336h-8v0.144c-0.334-0.051-0.671-0.078-1.008-0.08
	c-2.148,0.273-4.093,1.404-5.392,3.136L132,368h-1.44c-2.523-0.017-5.031,0.383-7.424,1.184L20.176,402.56
	C7.966,407.336-0.051,419.129,0,432.24V472c0,4.418,3.582,8,8,8h464c4.418,0,8-3.582,8-8v-39.76
	C480.004,418.963,471.778,407.075,459.352,402.4z M408,168h-16v-48h16V168z M333.176,374.912l-60.856,54.096L252,408.664
	l66.576-53.264L333.176,374.912z M144,158.64V104h-0.16c0.089-0.421,0.143-0.85,0.16-1.28V86.864l96-14.768l96,14.768v15.856
	c0.017,0.43,0.071,0.859,0.16,1.28H336v54.64c-11.483-4.432-23.692-6.684-36-6.64c-19.965-0.35-39.492,5.87-55.576,17.704
	c-1.6,1.232-3.048,2.488-4.424,3.792c-1.376-1.296-2.832-2.552-4.408-3.776C219.507,157.876,199.973,151.649,180,152
	C167.692,151.956,155.483,154.207,144,158.64z M240,16.8l139.656,62.84L352,90.84V80c-0.001-3.948-2.882-7.304-6.784-7.904l-104-16
	c-0.795-0.125-1.605-0.125-2.4,0l-104,16c-3.914,0.586-6.812,3.946-6.816,7.904v10.84l-27.656-11.2L240,16.8z M152,245.2v-72.328
	c8.984-3.22,18.456-4.868,28-4.872c16.389-0.371,32.447,4.652,45.704,14.296c2.969,2.276,5.619,4.94,7.88,7.92
	c2.651,3.535,7.665,4.251,11.2,1.6c0.606-0.455,1.145-0.994,1.6-1.6c2.266-2.986,4.922-5.655,7.896-7.936
	c13.264-9.641,29.327-14.658,45.72-14.28c9.544,0.004,19.016,1.652,28,4.872V245.2c-0.044,36.874-29.926,66.756-66.8,66.8h-42.4
	C181.926,311.956,152.044,282.074,152,245.2L152,245.2z M218.8,328h42.4c12.029-0.01,23.909-2.662,34.8-7.768v32.72l-56,44.8
	l-56-44.8v-32.72C194.892,325.338,206.771,327.99,218.8,328z M161.448,355.4L228,408.664l-20.32,20.344l-60.856-54.096
	L161.448,355.4z M464,464H16v-31.76c-0.069-6.376,3.724-12.162,9.6-14.64l102.632-33.248c0.751-0.246,1.538-0.365,2.328-0.352h2.4
	l69.728,61.976c3.165,2.812,7.973,2.672,10.968-0.32L240,419.312l26.344,26.344c2.995,2.992,7.803,3.132,10.968,0.32L347.04,384h2.4
	c0.847-0.008,1.688,0.13,2.488,0.408l102.016,33.032c6.089,2.381,10.085,8.262,10.056,14.8L464,464z"/>
<g>
</g>
<g>
</g>
<g>
</g>
<g>
</g>
<g>
</g>
<g>
</g>
<g>
</g>
<g>
</g>
<g>
</g>
<g>
</g>
<g>
</g>
<g>
</g>
<g>
</g>
<g>
</g>
<g>
</g>
</svg>
