<svg height="488pt" viewBox="0 -45 488.94157 488" width="488pt" xmlns="http://www.w3.org/2000/svg"><path d="m481.988281 120.734375c.476563 27.304687-8.871093 53.875-26.339843 74.867187l19.820312 44.730469-66.949219-10.679687c-12.699219 4.941406-26.175781 7.578125-39.800781 7.789062-.578125.011719-1.148438.011719-1.71875.011719-62.835938-.011719-114.03125-50.441406-114.988281-113.269531 0-.242188-.011719-.480469 0-.722656-.390625-63.25 50.378906-114.945313 113.632812-115.695313 63.25-.75 115.230469 49.722656 116.34375 112.96875zm0 0" fill="#6fe3ff"/><path d="m17.171875 377.523438c-6.566406-7.316407-10.1875-16.800782-10.171875-26.628907v-187.433593c0-1.199219.050781-2.386719.160156-3.558594l156.621094 132.621094c13.433594 11.375 33.125 11.367187 46.546875-.019532l85.171875-72.230468 4.269531-4.511719.011719-.007813c19.550781 14.148438 43.082031 21.746094 67.21875 21.699219v113.441406c-.011719 22.085938-17.914062 39.988281-40 40h-280c-11.398438.015625-22.257812-4.851562-29.828125-13.371093zm0 0" fill="#e48e66"/><path d="m299.78125 215.753906-.011719.007813-4.269531 4.511719-85.171875 72.230468c-13.421875 11.386719-33.113281 11.394532-46.546875.019532l-156.621094-132.621094c1.84375-20.628906 19.128906-36.4375 39.839844-36.441406h205.011719c-.011719.242187 0 .480468 0 .722656.507812 36.367187 18.230469 70.34375 47.769531 91.570312zm0 0" fill="#f8ec7d"/><g fill="#63316d"><path d="m327.800781 114.484375h.105469l77.929688-1.171875c3.867187-.058594 6.953124-3.238281 6.894531-7.105469-.054688-3.863281-3.238281-6.953125-7.101563-6.894531l-77.933594 1.171875c-3.863281.027344-6.976562 3.183594-6.949218 7.046875.027344 3.867188 3.183594 6.980469 7.050781 6.953125zm0 0"/><path d="m365.445312 146.734375-37.050781.550781c-3.863281.027344-6.976562 3.183594-6.949219 7.046875.027344 3.867188 3.183594 6.980469 7.050782 6.953125h.105468l37.050782-.550781c3.867187-.058594 6.953125-3.238281 6.894531-7.105469-.054687-3.863281-3.238281-6.953125-7.101563-6.894531zm0 0"/><path d="m12.105469 382.597656c.3125.308594.652343.589844 1.015625.835938 8.851562 9.230468 21.085937 14.453125 33.878906 14.460937h280c12.773438-.011719 24.992188-5.21875 33.847656-14.421875.953125-.644531 1.734375-1.511718 2.273438-2.53125 7.03125-8.433594 10.882812-19.066406 10.878906-30.046875v-106.640625c12.054688-.703125 23.9375-3.195312 35.257812-7.394531l65.109376 10.386719c.363281.058594.734374.085937 1.101562.085937 2.367188 0 4.574219-1.195312 5.867188-3.179687 1.292968-1.988282 1.492187-4.492188.53125-6.65625l-18.097657-40.847656c31.9375-41.660157 33.636719-99.078126 4.226563-142.554688-29.414063-43.476562-83.34375-63.257812-133.894532-49.109375-50.546874 14.148437-86.375 59.050781-88.949218 111.476563h-198.152344c-23.640625 0-43.597656 17.5625-46.609375 41.007812-.3710938 1.074219-.4765625 2.21875-.3085938 3.34375-.046875.867188-.0820312 1.75-.0820312 2.648438v187.433593c-.0078125 10.964844 3.835938 21.585938 10.855469 30.011719.328125.625.75 1.195312 1.25 1.691406zm34.894531 1.296875c-7.144531-.003906-14.089844-2.328125-19.800781-6.621093l84.445312-86.367188c2.703125-2.765625 2.652344-7.195312-.113281-9.898438-2.761719-2.703124-7.195312-2.652343-9.898438.113282l-83.625 85.53125c-2.632812-4.835938-4.011718-10.253906-4.007812-15.757813v-176.027343l145.257812 123c16.027344 13.640624 39.585938 13.632812 55.601563-.023438l85.167969-72.230469c.195312-.167969.382812-.34375.558594-.527343l.183593-.195313c17.710938 11.523437 38.132813 18.195313 59.230469 19.34375v106.660156c.003906 5.523438-1.386719 10.960938-4.035156 15.808594l-84.132813-85.597656c-2.714843-2.734375-7.125-2.761719-9.875-.0625-2.746093 2.703125-2.796875 7.113281-.109375 9.875l84.90625 86.386719c-5.699218 4.269531-12.628906 6.582031-19.753906 6.589843zm212.007812-260.496093c-.554687-47.824219 30.390626-90.324219 76.078126-104.480469 45.683593-14.160157 95.238281 3.394531 121.824218 43.152343 26.585938 39.757813 23.878906 92.261719-6.65625 129.074219-1.691406 2.046875-2.078125 4.871094-1 7.292969l14.597656 32.957031-54.230468-8.652343c-1.222656-.195313-2.472656-.0625-3.628906.382812-11.933594 4.644531-24.597657 7.125-37.398438 7.320312-.5.007813-.996094.007813-1.488281.007813h-.15625c-58.988281-.035156-107.039063-47.390625-107.941407-106.375v-.371094c0-.101562.003907-.207031 0-.308593zm-212.007812 7.0625h198.273438c2.28125 33.457031 18.164062 64.519531 43.949218 85.957031l-83.421875 70.746093c-10.800781 9.214844-26.691406 9.21875-37.5.015626l-153.667969-130.121094c3.140626-15.402344 16.644532-26.5 32.367188-26.597656zm0 0"/></g></svg>