<svg id="Layer_3" enable-background="new 0 0 64 64" height="512" viewBox="0 0 64 64" width="512" xmlns="http://www.w3.org/2000/svg"><g><g><path d="m22 2h40v40h-40z" fill="#c7e2fc"/></g><g><path d="m22 34.53c2.874 1.016 6.004 1.58 9.283 1.58 13.925 0 25.214-10.067 25.214-22.486 0-4.254-1.326-8.232-3.628-11.625h-30.869z" fill="#ebf7fe"/></g><g><path d="m26 14h24v10h-24z" fill="#fff"/></g><g><path d="m34 28h24v10h-24z" fill="#fff"/></g><g><path d="m22 2h40v8h-40z" fill="#f5b953"/></g><g><path d="m2 22h40v40h-40z" fill="#c7e2fc"/></g><g><path d="m2 54.53c2.874 1.016 6.004 1.58 9.283 1.58 13.925 0 25.214-10.067 25.214-22.486 0-4.254-1.326-8.232-3.628-11.625h-30.869z" fill="#ebf7fe"/></g><g><path d="m6 34h24v10h-24z" fill="#fff"/></g><g><path d="m14 48h24v10h-24z" fill="#fff"/></g><g><path d="m2 22h40v8h-40z" fill="#f5b953"/></g><g><path d="m42 63h-40c-.552 0-1-.448-1-1v-40c0-.552.448-1 1-1h40c.552 0 1 .448 1 1v40c0 .552-.448 1-1 1zm-39-2h38v-38h-38z"/></g><g><path d="m5 25h2v2h-2z"/></g><g><path d="m9 25h2v2h-2z"/></g><g><path d="m13 25h2v2h-2z"/></g><g><path d="m2 29h40v2h-40z"/></g><g><path d="m30 45h-24c-.552 0-1-.448-1-1v-10c0-.552.448-1 1-1h24c.552 0 1 .448 1 1v10c0 .552-.448 1-1 1zm-23-2h22v-8h-22z"/></g><g><path d="m38 59h-24c-.552 0-1-.448-1-1v-10c0-.552.448-1 1-1h24c.552 0 1 .448 1 1v10c0 .552-.448 1-1 1zm-23-2h22v-8h-22z"/></g><g><path d="m62 43h-20v-2h19v-38h-38v19h-2v-20c0-.552.448-1 1-1h40c.552 0 1 .448 1 1v40c0 .552-.448 1-1 1z"/></g><g><path d="m25 5h2v2h-2z"/></g><g><path d="m29 5h2v2h-2z"/></g><g><path d="m33 5h2v2h-2z"/></g><g><path d="m22 9h40v2h-40z"/></g><g><path d="m50 25h-8v-2h7v-8h-22v7h-2v-8c0-.552.448-1 1-1h24c.552 0 1 .448 1 1v10c0 .552-.448 1-1 1z"/></g><g><path d="m58 39h-16v-2h15v-8h-15v-2h16c.552 0 1 .448 1 1v10c0 .552-.448 1-1 1z"/></g></g></svg>